<svg
  width="36"
  height="36"
  viewBox="0 0 36 36"
  xmlns="http://www.w3.org/2000/svg"
>
  <defs>
    <linearGradient id="yellowGradient" x1="0%" y1="0%" x2="100%" y2="100%">
      <stop offset="0%" stop-color="#facc15" />
      <stop offset="100%" stop-color="#eab308" />
    </linearGradient>
  </defs>

  <rect width="36" height="36" rx="8" fill="url(#yellowGradient)" />

  <svg
    x="6"
    y="6"
    width="24"
    height="24"
    viewBox="0 -960 960 960"
  >
    <path
      d="m480-420 240-160-240-160v320Zm28 220h224q-7 26-24 42t-44 20L228-85q-33 5-59.5-15.5T138-154L85-591q-4-33 16-59t53-30l46-6v80l-36 5 54 437 290-36Zm-148-80q-33 0-56.5-23.5T280-360v-440q0-33 23.5-56.5T360-880h440q33 0 56.5 23.5T880-800v440q0 33-23.5 56.5T800-280H360Z"
      fill="#000"
    />
  </svg>
</svg>
